<svg width="960" height="320" viewBox="0 0 960 320" fill="none" xmlns="http://www.w3.org/2000/svg" role="img" aria-labelledby="title desc">
  <title id="title">hive logo lockup on light</title>
  <desc id="desc">The hive mark with wordmark and descriptor for light backgrounds.</desc>
  <rect width="960" height="320" fill="#F4FFF9"/>
  <svg x="72" y="58" width="204" height="204" viewBox="0 0 197.048 197.04768">
    <!-- outer amber hexagon -->
    <path d="M 128,215.53278 47.485374,169.04764 47.485371,76.07736 128,29.592216 l 80.51463,46.48514 0,92.970284 z" transform="translate(-29.476156,-24.038656)" fill="#b29500" stroke="#181818"/>
    <!-- inner dark hexagon -->
    <path d="M 128,215.53278 47.485374,169.04764 47.485371,76.07736 128,29.592216 l 80.51463,46.48514 0,92.970284 z" transform="matrix(0.87343506,0,0,0.87343506,-13.275844,-8.5265412)" fill="#12211d" stroke="#181818"/>
    <!-- left column cells -->
    <g transform="matrix(0.81111111,0,0,0.81111111,-11.6206,-5.0920682)">
      <path d="m 91,78.5 26,15 v 30 l -26,15 -26,-15 v -30 z" fill="#b29500"/>
      <path d="m 91,116.5 26,15 v 30 l -26,15 -26,-15 v -30 z" fill="#b29500"/>
      <path d="m 91,91.192308 15,8.653846 v 17.307696 l -15,8.65384 -15,-8.65384 V 99.846154 Z" fill="#1d3730"/>
      <path d="m 91.000001,130.5 13.866669,8 v 16 l -13.866669,8 -13.866666,-8 v -16 z" fill="#1d3730"/>
    </g>
    <!-- right column cells -->
    <g transform="matrix(0.81111111,0,0,0.81111111,67.1294,-5.0920682)">
      <path d="m 91,78.5 26,15 v 30 l -26,15 -26,-15 v -30 z" fill="#b29500"/>
      <path d="m 91,116.5 26,15 v 30 l -26,15 -26,-15 v -30 z" fill="#b29500"/>
      <path d="m 91,91.192308 15,8.653846 v 17.307696 l -15,8.65384 -15,-8.65384 V 99.846154 Z" fill="#1d3730"/>
      <path d="m 91.000001,130.5 13.866669,8 v 16 l -13.866669,8 -13.866666,-8 v -16 z" fill="#1d3730"/>
    </g>
    <!-- center top cell -->
    <path d="m 98.523844,41.391385 30.249996,17.875001 v 35.749998 l -30.249996,17.874996 -30.25,-17.874996 V 59.266386 Z" fill="#736200"/>
    <!-- center bottom cell -->
    <path d="m 98.523844,84.016384 30.249996,17.874996 v 35.75 l -30.249996,17.875 -30.25,-17.875 v -35.75 z" fill="#736200"/>
    <!-- center inner hex -->
    <path d="M 98.523844,71.250827 119.85162,84.199834 V 110.09785 L 98.523844,123.04686 77.196064,110.09785 V 84.199834 Z" fill="#12211d"/>
    <!-- center tiny hex -->
    <path d="m 98.523844,83.730354 13.149766,7.39675 v 14.793476 l -13.149766,7.39675 -13.14977,-7.39675 V 91.127104 Z" fill="#b29500"/>
  </svg>
  <text x="344" y="143" fill="#071311" font-family="Inter, ui-sans-serif, system-ui, -apple-system, BlinkMacSystemFont, Segoe UI, sans-serif" font-size="88" font-weight="720" letter-spacing="0">hive</text>
  <text x="349" y="191" fill="#1d3730" font-family="JetBrains Mono, SFMono-Regular, Consolas, Liberation Mono, monospace" font-size="22" font-weight="500" letter-spacing="2">HOST ISOLATED VIRTUAL ENVIRONMENT</text>
  <path d="M344 216H716" stroke="#B8D8D0" stroke-width="2"/>
  <text x="349" y="252" fill="#31534C" font-family="JetBrains Mono, SFMono-Regular, Consolas, Liberation Mono, monospace" font-size="18" font-weight="500">podman-backed sandboxes for AI agents</text>
</svg>
